<svg width="26" height="26" viewBox="0 0 26 26" fill="none" xmlns="http://www.w3.org/2000/svg">
<path d="M23.2783 8.00322H22.0596L19.2971 0.975089C19.1346 0.609464 18.7283 0.446964 18.3627 0.568839C17.9971 0.731339 17.8346 1.13759 17.9564 1.50321L20.5158 8.04384H5.44395L8.00332 1.50321C8.16582 1.13759 7.9627 0.731339 7.59707 0.568839C7.23145 0.406339 6.8252 0.609464 6.6627 0.975089L3.9002 8.00322H2.68145C2.07207 8.00322 1.54395 8.49072 1.54395 9.14071V12.5938C1.54395 13.2032 2.03145 13.7313 2.68145 13.7313H2.72207L3.77832 22.9938C3.94082 24.4157 5.15957 25.5126 6.62207 25.5126H19.2971C20.7596 25.5126 21.9783 24.4157 22.1408 22.9938L23.1971 13.7313H23.2377C23.8471 13.7313 24.3752 13.2438 24.3752 12.5938V9.14071C24.4158 8.53134 23.9283 8.00322 23.2783 8.00322ZM3.00645 9.42509H22.9939V12.2688H3.00645V9.42509ZM20.7596 22.7907C20.6783 23.522 20.0689 24.0501 19.3377 24.0501H6.6627C5.93145 24.0501 5.32207 23.522 5.24082 22.7907L4.18457 13.6907H21.8158L20.7596 22.7907Z" fill="#212B36"/>
<path d="M8.73467 20.6375C9.14092 20.6375 9.46592 20.3125 9.46592 19.9062V16.7781C9.46592 16.3719 9.14092 16.0469 8.73467 16.0469C8.32842 16.0469 8.00342 16.3719 8.00342 16.7781V19.9062C8.00342 20.3125 8.32842 20.6375 8.73467 20.6375Z" fill="#212B36"/>
<path d="M17.2659 20.6375C17.6722 20.6375 17.9972 20.3125 17.9972 19.9062V16.7781C17.9972 16.3719 17.6722 16.0469 17.2659 16.0469C16.8597 16.0469 16.5347 16.3719 16.5347 16.7781V19.9062C16.5753 20.3125 16.9003 20.6375 17.2659 20.6375Z" fill="#212B36"/>
</svg>
